<svg width="64" height="64" viewBox="0 0 64 64" fill="none" xmlns="http://www.w3.org/2000/svg">
  <defs>
    <linearGradient id="g" x1="0" y1="0" x2="64" y2="64" gradientUnits="userSpaceOnUse">
      <stop stop-color="#6D99FB"/>
      <stop offset="1" stop-color="#2F66E8"/>
    </linearGradient>
  </defs>
  <rect width="64" height="64" rx="15" fill="url(#g)"/>
  <path d="M23.5 20.5c-3.7 0-6.6 2.3-6.6 5.7 0 3 2 4.5 5.6 5.4l2.4.6c2 .5 2.8 1 2.8 2 0 1.1-1.1 1.8-2.9 1.8-2 0-3.3-.8-3.6-2.4h-4.6c.3 3.9 3.4 6.2 8.1 6.2 4.3 0 7.4-2.2 7.4-5.9 0-3-1.9-4.6-5.8-5.5l-2.3-.5c-1.8-.4-2.7-1-2.7-2 0-1 1-1.7 2.6-1.7 1.7 0 2.8.8 3 2.2h4.5c-.2-3.7-3.2-6.1-7.9-6.1Z" fill="white"/>
  <path d="M35 21l3.6 22h4.4l2.5-13.4L48 43h4.4L56 21h-4.5l-2 13.6L47 21h-4.2l-2.6 13.6L38.3 21H35Z" fill="white" fill-opacity="0.92"/>
</svg>
