<?xml version="1.0" encoding="UTF-8"?>
<svg version="1.1" xmlns="http://www.w3.org/2000/svg" width="512" height="512">
<path d="M0 0 C168.96 0 337.92 0 512 0 C512 168.96 512 337.92 512 512 C343.04 512 174.08 512 0 512 C0 343.04 0 174.08 0 0 Z " fill="#3B82F6" transform="translate(0,0)"/>
<path d="M0 0 C1.40818891 -0.00663564 2.81636617 -0.0163299 4.22451538 -0.02881455 C8.08967586 -0.05415634 11.95358382 -0.03584925 15.81869781 -0.01032734 C19.98852056 0.00962012 24.1581723 -0.01075992 28.32798767 -0.02603149 C36.49454816 -0.04945887 44.66063205 -0.03529151 52.82716436 -0.00809297 C62.33477935 0.0223791 71.84227767 0.01754006 81.34992766 0.01167962 C98.3118276 0.00261007 115.27349965 0.02845541 132.2353363 0.07269287 C148.69960873 0.11562505 165.1635931 0.12978263 181.62791443 0.1137085 C199.55191549 0.09624773 217.47578599 0.09447893 235.39978164 0.12029243 C237.31039456 0.12302559 239.22100748 0.12575193 241.13162041 0.12847137 C242.07170852 0.12983273 243.01179664 0.13119408 243.98037227 0.13259669 C250.61005638 0.14122409 257.2396863 0.13897066 263.86937141 0.13282013 C271.94632804 0.12577679 280.02302051 0.13695156 288.09991092 0.17132798 C292.22211253 0.18846216 296.34391875 0.19760984 300.46614647 0.18519211 C304.23825368 0.17407752 308.0095549 0.1859788 311.78154921 0.21642181 C313.79567437 0.2267225 315.80987861 0.21245817 317.82397372 0.19738603 C326.51534406 0.30126773 326.51534406 0.30126773 330.67175961 3.10523605 C332.45352986 6.01778807 332.99074865 7.47096124 332.98789978 10.84686279 C332.99910858 11.82255219 333.01031738 12.79824158 333.02186584 13.80349731 C333.0086026 14.86235138 332.99533936 15.92120544 332.98167419 17.012146 C332.98722321 18.13625885 332.99277222 19.2603717 332.99848938 20.41854858 C333.01029863 24.13377526 332.98599538 27.84778588 332.96018982 31.56292725 C332.95847902 34.14455103 332.95854408 36.72617655 332.96031189 39.30780029 C332.9586579 44.71822004 332.94052695 50.12819711 332.90843201 55.53851318 C332.87154069 61.7876167 332.86275681 68.03626227 332.86972952 74.28546047 C332.87604165 80.30458581 332.8650536 86.32351421 332.84576416 92.34262085 C332.83872961 94.90069818 332.83561018 97.45878936 332.8364563 100.01687622 C332.83465993 103.59107501 332.81329038 107.16462226 332.78636169 110.7387085 C332.7892923 111.79756256 332.7922229 112.85641663 332.79524231 113.94735718 C332.6897436 123.01659512 332.6897436 123.01659512 329.36643982 126.87542725 C325.9433772 129.15746899 324.72480777 129.12786117 320.70135689 129.13548946 C319.51411274 129.14255506 318.32686859 129.14962065 317.10364735 129.15690035 C315.79287405 129.15448526 314.48210076 129.15207018 313.13160706 129.14958191 C311.73014631 129.15403222 310.32868809 129.15934557 308.92723358 129.16545063 C305.0671103 129.17966589 301.20706739 129.18129326 297.34692168 129.18085372 C293.18731368 129.18249882 289.0277391 129.1955595 284.8681488 129.20704651 C275.76910786 129.22991879 266.67009021 129.23781938 257.57102442 129.24287295 C251.89221886 129.24612712 246.2134201 129.25264785 240.53461838 129.25987434 C224.81895477 129.27944248 209.1032975 129.29584567 193.38762093 129.29875088 C192.38149627 129.29893845 191.37537162 129.29912602 190.33875834 129.29931927 C188.29900479 129.29968553 186.25925124 129.30004923 184.2194977 129.30041038 C183.20692903 129.30059319 182.19436036 129.300776 181.15110779 129.30096436 C180.13730682 129.3011449 179.12350586 129.30132545 178.07898365 129.30151147 C161.64458317 129.30505459 145.21031361 129.3320846 128.77595855 129.36946224 C111.91265734 129.40750934 95.04942115 129.42690809 78.18607605 129.42721039 C68.71398796 129.42779574 59.24205606 129.43633775 49.77000809 129.46520805 C41.70583606 129.4896738 33.64187717 129.49703743 25.5776781 129.48196053 C21.46154022 129.47477203 17.34582364 129.47573183 13.22973251 129.49837112 C9.46311123 129.51889023 5.69723702 129.51642815 1.93062447 129.49549628 C-0.08070385 129.49032284 -2.0920486 129.50983496 -4.1032809 129.53015798 C-13.82890611 129.43890415 -13.82890611 129.43890415 -16.91411018 126.46200657 C-19.17616514 123.05918323 -19.76080615 121.38542904 -19.79418945 117.35414124 C-19.80925789 115.92637108 -19.80925789 115.92637108 -19.82463074 114.46975708 C-19.83046173 113.42196075 -19.83629272 112.37416443 -19.84230042 111.2946167 C-19.8520842 110.19366165 -19.86186798 109.0927066 -19.87194824 107.95838928 C-19.90195016 104.30184141 -19.92330181 100.64533026 -19.94215393 96.9887085 C-19.94872576 95.74156759 -19.95529758 94.49442669 -19.96206856 93.20949364 C-19.98796634 87.9672038 -20.01145492 82.7249194 -20.0265646 77.48258686 C-20.04845425 69.97632984 -20.0903837 62.4707897 -20.16000217 54.96481925 C-20.21302269 49.04671993 -20.23305577 43.12877833 -20.24176216 37.21043968 C-20.25032874 34.69581735 -20.26917609 32.1812082 -20.29850578 29.66674232 C-20.33737043 26.14499739 -20.33846023 22.62511854 -20.33058167 19.10321045 C-20.35058228 18.06553528 -20.37058289 17.02786011 -20.39118958 15.95874023 C-20.38149643 14.99279434 -20.37180328 14.02684845 -20.36181641 13.03163147 C-20.36604835 12.20000646 -20.37028028 11.36838144 -20.37464046 10.51155567 C-17.38496892 -0.12313306 -9.7863357 -0.12723928 0 0 Z " fill="#3F84F6" transform="translate(99.63356018066406,191.12457275390625)"/>
<path d="M0 0 C4.29 0 8.58 0 13 0 C15.05177715 5.27599837 16.80504586 10.55002708 18.3515625 15.99609375 C18.8243466 17.97603488 18.8243466 17.97603488 20 19 C21.98 13.06 23.96 7.12 26 1 C29.96 1 33.92 1 38 1 C44 14.42857143 44 14.42857143 44 21 C44.66 21 45.32 21 46 21 C46.0825 19.9275 46.165 18.855 46.25 17.75 C46.88857495 12.51931991 48.18439804 3.81560196 52 0 C54.01964199 -0.07244053 56.04167124 -0.08377188 58.0625 -0.0625 C59.71958984 -0.04896484 59.71958984 -0.04896484 61.41015625 -0.03515625 C62.26480469 -0.02355469 63.11945313 -0.01195312 64 0 C61.5251569 10.21530981 58.8073737 20.19845334 55 30 C54.4358064 31.49936381 53.87326852 32.99935184 53.3125 34.5 C52.879375 35.655 52.44625 36.81 52 38 C47.38 38 42.76 38 38 38 C37.15919981 35.58570231 36.32718598 33.16896007 35.5 30.75 C35.26152344 30.06808594 35.02304688 29.38617188 34.77734375 28.68359375 C33.60578713 25.23586997 33 22.68297096 33 19 C32.34 19 31.68 19 31 19 C30.896875 19.928125 30.79375 20.85625 30.6875 21.8125 C28.78917464 35.21082536 28.78917464 35.21082536 26 38 C23.64686445 38.07271741 21.29166332 38.08370868 18.9375 38.0625 C17.64714844 38.05347656 16.35679688 38.04445313 15.02734375 38.03515625 C14.02832031 38.02355469 13.02929688 38.01195312 12 38 C9.12512588 30.20727258 6.38830479 22.37582838 3.75 14.5 C3.20472656 12.89511719 3.20472656 12.89511719 2.6484375 11.2578125 C2.30554688 10.23429687 1.96265625 9.21078125 1.609375 8.15625 C1.29967773 7.23650391 0.98998047 6.31675781 0.67089844 5.36914062 C0 3 0 3 0 0 Z " fill="#F8FBFE" transform="translate(102,261)"/>
<path d="M0 0 C5.18112664 3.25964921 8.69741602 7.05035596 10.921875 12.796875 C11.82568305 20.25329144 10.41800608 25.14461975 6.546875 31.546875 C1.36017381 36.59708405 -4.23837854 38.12317329 -11.390625 38.421875 C-18.9323198 38.17518405 -23.10750558 35.72318491 -28.203125 30.359375 C-31.90015059 24.67164333 -32.70230925 19.57839577 -31.828125 12.859375 C-30.74571451 9.93686666 -29.42725159 7.55790112 -27.828125 4.859375 C-27.168125 4.859375 -26.508125 4.859375 -25.828125 4.859375 C-25.828125 4.199375 -25.828125 3.539375 -25.828125 2.859375 C-18.17899431 -2.13597566 -8.64202433 -3.48545733 0 0 Z " fill="#F9FBFE" transform="translate(198.828125,262.140625)"/>
<path d="M0 0 C3.795 -0.103125 7.59 -0.20625 11.5 -0.3125 C12.68013672 -0.35802002 13.86027344 -0.40354004 15.07617188 -0.45043945 C22.01849068 -0.54126148 26.70183166 0.35328672 32 5 C34.83104815 8.25570538 35.87962274 10.17240633 36.5 14.4375 C35.8710405 18.91883645 34.53690271 21.26926072 32 25 C31.34 25.33 30.68 25.66 30 26 C31.56641751 30.30764815 33.68336156 34.06171464 36 38 C23.46669083 39.06846885 23.46669083 39.06846885 19.95703125 36.51171875 C18.26503592 34.11513885 17 31.99265205 17 29 C15.68 29 14.36 29 13 29 C13 31.97 13 34.94 13 38 C8.71 38 4.42 38 0 38 C0 25.46 0 12.92 0 0 Z " fill="#F8FAFE" transform="translate(214,261)"/>
<path d="M0 0 C0.98613281 -0.020625 1.97226562 -0.04125 2.98828125 -0.0625 C10.5150983 -0.10269662 15.52008169 0.64333546 21.25 5.875 C21.95125 6.65875 22.6525 7.4425 23.375 8.25 C23.87 8.745 23.87 8.745 24.375 9.25 C24.99550562 14.91808019 24.63295453 19.41923983 21.375 24.25 C16.58930743 28.79027243 13.06484848 29.38916486 6.625 29.3125 C5.64015625 29.30347656 4.6553125 29.29445312 3.640625 29.28515625 C2.89296875 29.27355469 2.1453125 29.26195312 1.375 29.25 C1.375 32.22 1.375 35.19 1.375 38.25 C-2.915 38.25 -7.205 38.25 -11.625 38.25 C-11.64964928 32.99894558 -11.66783568 27.74792455 -11.67993164 22.49682617 C-11.68497218 20.70905979 -11.69180454 18.92129755 -11.70043945 17.13354492 C-11.7125173 14.56948832 -11.71823094 12.00548603 -11.72265625 9.44140625 C-11.72781754 8.6372377 -11.73297882 7.83306915 -11.73829651 7.00453186 C-11.73849215 5.08598285 -11.68701983 3.16754632 -11.625 1.25 C-9.23192322 -1.14307678 -3.21011186 0.01639904 0 0 Z " fill="#F7F9FE" transform="translate(264.625,213.75)"/>
<path d="M0 0 C4.29 0 8.58 0 13 0 C13.33 3.96 13.66 7.92 14 12 C15.258125 10.7625 16.51625 9.525 17.8125 8.25 C18.52019531 7.55390625 19.22789062 6.8578125 19.95703125 6.140625 C22.05123823 4.11193186 22.05123823 4.11193186 23.3125 1.75 C25 0 25 0 28.35546875 -0.390625 C29.62003906 -0.34421875 30.88460938 -0.2978125 32.1875 -0.25 C34.09595703 -0.19585937 34.09595703 -0.19585937 36.04296875 -0.140625 C37.01878906 -0.09421875 37.99460937 -0.0478125 39 0 C39 2 39 2 36.9375 4.1875 C35.36111061 5.71872064 33.7619112 7.2190417 32.14453125 8.70703125 C31.51933594 9.29871094 30.89414062 9.89039063 30.25 10.5 C29.36054688 11.31984375 29.36054688 11.31984375 28.453125 12.15625 C26.61288369 14.49117984 26.26548574 16.04582311 26 19 C27.03226366 21.18232672 27.03226366 21.18232672 28.74609375 23.13671875 C29.33583984 23.87857422 29.92558594 24.62042969 30.53320312 25.38476562 C31.16162109 26.14466797 31.79003906 26.90457031 32.4375 27.6875 C33.66926417 29.20909103 34.89733177 30.73368444 36.12109375 32.26171875 C36.6720874 32.93162842 37.22308105 33.60153809 37.79077148 34.29174805 C39 36 39 36 39 38 C26.75346108 39.22295534 26.75346108 39.22295534 22.546875 36.2890625 C20.29845415 33.67220294 18.54054329 31.08108658 17 28 C16.01 28 15.02 28 14 28 C13.67 31.63 13.34 35.26 13 39 C8.71 39 4.42 39 0 39 C0 26.13 0 13.26 0 0 Z " fill="#F4F8FE" transform="translate(254,261)"/>
<path d="M0 0 C4.29 0 8.58 0 13 0 C13.04898438 1.76988281 13.09796875 3.53976563 13.1484375 5.36328125 C13.22346332 7.67970359 13.29901123 9.99610905 13.375 12.3125 C13.4059375 13.47974609 13.436875 14.64699219 13.46875 15.84960938 C13.50742188 16.96787109 13.54609375 18.08613281 13.5859375 19.23828125 C13.6173584 20.26993408 13.6487793 21.30158691 13.68115234 22.36450195 C13.82674629 25.22843236 13.82674629 25.22843236 16 28 C18.5 28.5 18.5 28.5 21 28 C23.25870108 24.61194839 23.29259413 23.22649259 23.4140625 19.23828125 C23.45273438 18.12001953 23.49140625 17.00175781 23.53125 15.84960938 C23.5621875 14.68236328 23.593125 13.51511719 23.625 12.3125 C23.66367188 11.13365234 23.70234375 9.95480469 23.7421875 8.74023438 C23.83654057 5.82708332 23.91936242 2.91356297 24 0 C28.29 0 32.58 0 37 0 C37.16279384 4.31403682 37.28132725 8.62186248 37.375 12.9375 C37.42527344 14.14986328 37.47554687 15.36222656 37.52734375 16.61132812 C37.6425951 23.69928613 37.16488403 28.6248272 32.69384766 34.29296875 C29.27048887 37.7429723 26.32287045 38.83313793 21.5625 39.43359375 C9.70069155 39.44660012 9.70069155 39.44660012 5 35 C4.4225 34.505 3.845 34.01 3.25 33.5 C0.03768744 29.64522493 -0.24040555 26.44461092 -0.1953125 21.484375 C-0.18886719 20.23398438 -0.18242187 18.98359375 -0.17578125 17.6953125 C-0.15902344 16.39335937 -0.14226562 15.09140625 -0.125 13.75 C-0.11597656 12.43257812 -0.10695312 11.11515625 -0.09765625 9.7578125 C-0.07408609 6.50513084 -0.03821525 3.25254256 0 0 Z " fill="#F6F9FE" transform="translate(211,214)"/>
<path d="M0 0 C10.23 0 20.46 0 31 0 C31 3.3 31 6.6 31 10 C25.06 10 19.12 10 13 10 C13 11.32 13 12.64 13 14 C18.28 14 23.56 14 29 14 C29 17.3 29 20.6 29 24 C23.39 24 17.78 24 12 24 C12.33 25.32 12.66 26.64 13 28 C18.94 28.33 24.88 28.66 31 29 C31 31.97 31 34.94 31 38 C20.77 38 10.54 38 0 38 C0 25.46 0 12.92 0 0 Z " fill="#F6F9FE" transform="translate(140,214)"/>
<path d="M0 0 C1.40818891 -0.00663564 2.81636617 -0.0163299 4.22451538 -0.02881455 C8.08967586 -0.05415634 11.95358382 -0.03584925 15.81869781 -0.01032734 C19.98852056 0.00962012 24.1581723 -0.01075992 28.32798767 -0.02603149 C36.49454816 -0.04945887 44.66063205 -0.03529151 52.82716436 -0.00809297 C62.33477935 0.0223791 71.84227767 0.01754006 81.34992766 0.01167962 C98.3118276 0.00261007 115.27349965 0.02845541 132.2353363 0.07269287 C148.69960873 0.11562505 165.1635931 0.12978263 181.62791443 0.1137085 C199.55191549 0.09624773 217.47578599 0.09447893 235.39978164 0.12029243 C237.31039456 0.12302559 239.22100748 0.12575193 241.13162041 0.12847137 C242.07170852 0.12983273 243.01179664 0.13119408 243.98037227 0.13259669 C250.61005638 0.14122409 257.2396863 0.13897066 263.86937141 0.13282013 C271.94632804 0.12577679 280.02302051 0.13695156 288.09991092 0.17132798 C292.22211253 0.18846216 296.34391875 0.19760984 300.46614647 0.18519211 C304.23825368 0.17407752 308.0095549 0.1859788 311.78154921 0.21642181 C313.79567437 0.2267225 315.80987861 0.21245817 317.82397372 0.19738603 C326.51534406 0.30126773 326.51534406 0.30126773 330.67175961 3.10523605 C332.45352986 6.01778807 332.99074865 7.47096124 332.98789978 10.84686279 C332.99910858 11.82255219 333.01031738 12.79824158 333.02186584 13.80349731 C333.0086026 14.86235138 332.99533936 15.92120544 332.98167419 17.012146 C332.98722321 18.13625885 332.99277222 19.2603717 332.99848938 20.41854858 C333.01029863 24.13377526 332.98599538 27.84778588 332.96018982 31.56292725 C332.95847902 34.14455103 332.95854408 36.72617655 332.96031189 39.30780029 C332.9586579 44.71822004 332.94052695 50.12819711 332.90843201 55.53851318 C332.87154069 61.7876167 332.86275681 68.03626227 332.86972952 74.28546047 C332.87604165 80.30458581 332.8650536 86.32351421 332.84576416 92.34262085 C332.83872961 94.90069818 332.83561018 97.45878936 332.8364563 100.01687622 C332.83465993 103.59107501 332.81329038 107.16462226 332.78636169 110.7387085 C332.7892923 111.79756256 332.7922229 112.85641663 332.79524231 113.94735718 C332.6897436 123.01659512 332.6897436 123.01659512 329.36643982 126.87542725 C325.9433772 129.15746899 324.72480777 129.12786117 320.70135689 129.13548946 C319.51411274 129.14255506 318.32686859 129.14962065 317.10364735 129.15690035 C315.79287405 129.15448526 314.48210076 129.15207018 313.13160706 129.14958191 C311.73014631 129.15403222 310.32868809 129.15934557 308.92723358 129.16545063 C305.0671103 129.17966589 301.20706739 129.18129326 297.34692168 129.18085372 C293.18731368 129.18249882 289.0277391 129.1955595 284.8681488 129.20704651 C275.76910786 129.22991879 266.67009021 129.23781938 257.57102442 129.24287295 C251.89221886 129.24612712 246.2134201 129.25264785 240.53461838 129.25987434 C224.81895477 129.27944248 209.1032975 129.29584567 193.38762093 129.29875088 C192.38149627 129.29893845 191.37537162 129.29912602 190.33875834 129.29931927 C188.29900479 129.29968553 186.25925124 129.30004923 184.2194977 129.30041038 C183.20692903 129.30059319 182.19436036 129.300776 181.15110779 129.30096436 C180.13730682 129.3011449 179.12350586 129.30132545 178.07898365 129.30151147 C161.64458317 129.30505459 145.21031361 129.3320846 128.77595855 129.36946224 C111.91265734 129.40750934 95.04942115 129.42690809 78.18607605 129.42721039 C68.71398796 129.42779574 59.24205606 129.43633775 49.77000809 129.46520805 C41.70583606 129.4896738 33.64187717 129.49703743 25.5776781 129.48196053 C21.46154022 129.47477203 17.34582364 129.47573183 13.22973251 129.49837112 C9.46311123 129.51889023 5.69723702 129.51642815 1.93062447 129.49549628 C-0.08070385 129.49032284 -2.0920486 129.50983496 -4.1032809 129.53015798 C-13.82890611 129.43890415 -13.82890611 129.43890415 -16.91411018 126.46200657 C-19.17616514 123.05918323 -19.76080615 121.38542904 -19.79418945 117.35414124 C-19.80925789 115.92637108 -19.80925789 115.92637108 -19.82463074 114.46975708 C-19.83046173 113.42196075 -19.83629272 112.37416443 -19.84230042 111.2946167 C-19.8520842 110.19366165 -19.86186798 109.0927066 -19.87194824 107.95838928 C-19.90195016 104.30184141 -19.92330181 100.64533026 -19.94215393 96.9887085 C-19.94872576 95.74156759 -19.95529758 94.49442669 -19.96206856 93.20949364 C-19.98796634 87.9672038 -20.01145492 82.7249194 -20.0265646 77.48258686 C-20.04845425 69.97632984 -20.0903837 62.4707897 -20.16000217 54.96481925 C-20.21302269 49.04671993 -20.23305577 43.12877833 -20.24176216 37.21043968 C-20.25032874 34.69581735 -20.26917609 32.1812082 -20.29850578 29.66674232 C-20.33737043 26.14499739 -20.33846023 22.62511854 -20.33058167 19.10321045 C-20.35058228 18.06553528 -20.37058289 17.02786011 -20.39118958 15.95874023 C-20.38149643 14.99279434 -20.37180328 14.02684845 -20.36181641 13.03163147 C-20.36604835 12.20000646 -20.37028028 11.36838144 -20.37464046 10.51155567 C-17.38496892 -0.12313306 -9.7863357 -0.12723928 0 0 Z M-16.63356018 5.87542725 C-18.54615808 8.77312836 -18.88534692 11.01536527 -18.89425659 14.45413208 C-18.9013414 15.36810257 -18.90842621 16.28207306 -18.91572571 17.22373962 C-18.91324829 18.21916275 -18.91077087 19.21458588 -18.90821838 20.24017334 C-18.91332932 21.29425888 -18.91844025 22.34834442 -18.92370605 23.43437195 C-18.93761819 26.92259381 -18.93664393 30.41061842 -18.93434143 33.89886475 C-18.93822767 36.32258172 -18.94256219 38.74629802 -18.94732666 41.17001343 C-18.95479252 46.25250454 -18.95449506 51.3349262 -18.94923401 56.41741943 C-18.94344121 62.92985081 -18.96036432 69.44199762 -18.98357868 75.95438194 C-18.99831294 80.96096458 -18.99918808 85.96747866 -18.99606895 90.97407913 C-18.99658239 93.37504261 -19.00182435 95.77600989 -19.01188087 98.17695236 C-19.0242206 101.53545343 -19.01746772 104.89339986 -19.00587463 108.25189209 C-19.01351837 109.24326675 -19.02116211 110.23464142 -19.02903748 111.25605774 C-18.98884845 116.52503212 -18.70643566 120.38457517 -15.63356018 124.87542725 C-12.43797756 127.85568163 -10.26181824 128.25086714 -5.94192696 128.25295067 C-4.77420883 128.26077391 -3.60649071 128.26859715 -2.40338719 128.27665746 C-1.11955454 128.2699653 0.1642781 128.26327313 1.48701477 128.25637817 C2.86387794 128.25983403 4.24073834 128.26459811 5.61759293 128.27055991 C9.40517254 128.28310996 13.19252605 128.27688141 16.98010659 128.26760125 C21.06336787 128.2608273 25.14658965 128.27128384 29.22984314 128.27954102 C37.23110151 128.29289898 45.23227559 128.28999124 53.2335373 128.28130309 C59.7360679 128.27453411 66.23857483 128.27360642 72.74110794 128.27687454 C73.6658043 128.27733424 74.59050065 128.27779394 75.54321811 128.27826757 C77.4216156 128.27922673 79.30001307 128.28019937 81.17841054 128.28118534 C98.80363981 128.28974552 116.42882231 128.27989576 134.0540439 128.26378424 C149.1804975 128.25038493 164.30688201 128.25270475 179.43333435 128.26654053 C196.99142886 128.28259291 214.54948234 128.28891681 232.10758317 128.27970374 C233.97976883 128.27874808 235.85195449 128.27780496 237.72414017 128.27687454 C238.64532877 128.27641172 239.56651738 128.27594889 240.51562079 128.27547204 C247.0100513 128.27288079 253.50445581 128.27725614 259.99888229 128.2843132 C267.91401956 128.29272479 275.82906757 128.29045543 283.74419461 128.27447097 C287.78339718 128.26658297 291.82245089 128.26350556 295.86165237 128.27341843 C299.55905601 128.28235522 303.25617276 128.27744939 306.95355035 128.26148577 C308.92529387 128.25654507 310.89705728 128.26634373 312.86878002 128.27665746 C321.06875128 128.31634006 321.06875128 128.31634006 328.36643982 124.87542725 C332.17470741 119.70155526 331.79799688 114.24596659 331.77049255 108.08416748 C331.7773558 107.00867645 331.78421906 105.93318542 331.79129028 104.82510376 C331.80955907 101.27794107 331.80572123 97.73122053 331.80003357 94.184021 C331.8045946 91.71592566 331.80989994 89.24783159 331.81591797 86.77973938 C331.82484871 81.61081782 331.82242537 76.44205077 331.81248474 71.27313232 C331.80098253 64.64622754 331.8212266 58.0198546 331.85040188 51.39301968 C331.86873594 46.29810698 331.86847717 41.20332248 331.86276436 36.10838509 C331.86261087 33.66472692 331.86867776 31.22106022 331.88105583 28.7774334 C331.89591435 25.36371187 331.88532627 21.9509827 331.8681488 18.53729248 C331.87781677 17.52676315 331.88748474 16.51623383 331.89744568 15.4750824 C331.8511104 11.08298195 331.79824382 8.57847612 329.46008301 4.77156067 C326.1514824 1.77508628 324.25399427 1.74888937 319.87125683 1.74120617 C318.10905246 1.7345194 318.10905246 1.7345194 316.311248 1.72769755 C315.00923471 1.72788191 313.70722142 1.72806628 312.36575317 1.72825623 C310.97753175 1.72495848 309.58931129 1.7212331 308.20109206 1.71711475 C304.37293201 1.70707654 300.54478763 1.70337504 296.71661627 1.70072544 C292.59312942 1.6968278 288.46965505 1.68724915 284.34617615 1.67851257 C274.38175647 1.65873351 264.41733574 1.64868042 254.45290133 1.63978478 C249.76394742 1.63540451 245.07499465 1.63003705 240.38604164 1.62479591 C224.80509901 1.60778269 209.22415709 1.59328738 193.6432066 1.58604717 C189.5982329 1.58413719 185.5532592 1.58221687 181.50828552 1.58026123 C180.5028909 1.57977749 179.49749628 1.57929375 178.46163515 1.57879535 C162.16622508 1.57049082 145.87088832 1.5451472 129.57551029 1.51268055 C112.85688787 1.47964135 96.13830276 1.46160128 79.41964751 1.45840293 C70.02804731 1.45623499 60.63655403 1.44744485 51.24498558 1.42194176 C43.24852166 1.40027764 35.25219061 1.39216314 27.25570067 1.40190854 C23.17405138 1.40646566 19.09267651 1.40448554 15.01106453 1.38514709 C11.27595516 1.36760279 7.54132216 1.3684413 3.80620835 1.38404439 C1.81173822 1.3875676 -0.18273641 1.37132923 -2.17713815 1.35443991 C-3.3597643 1.36302081 -4.54239046 1.3716017 -5.76085377 1.38044262 C-6.78159703 1.37946581 -7.80234029 1.378489 -8.85401517 1.37748259 C-12.3812768 2.00937776 -14.05569424 3.43980686 -16.63356018 5.87542725 Z " fill="#F6F9FE" transform="translate(99.63356018066406,191.12457275390625)"/>
<path d="M0 0 C0.74636719 -0.00773437 1.49273437 -0.01546875 2.26171875 -0.0234375 C6.4578248 -0.00858403 9.66851788 0.33425894 13.5 2.25 C12.70421364 5.69840758 11.63364841 8.84905478 10.5 12.25 C5.22 11.59 -0.06 10.93 -5.5 10.25 C-5.17 11.24 -4.84 12.23 -4.5 13.25 C-1.05016713 14.43757336 2.43908155 15.23318811 5.984375 16.08984375 C9.62639256 17.29170954 11.73241506 18.63104462 14.5 21.25 C16.25713848 24.76427696 15.43923025 28.53167751 14.5 32.25 C11.59968944 36.03651656 8.98958649 37.8143398 4.5 39.25 C-3.67847512 39.95519886 -11.06617157 39.89105882 -18.5 36.25 C-17.89009109 32.69219804 -16.9216319 29.5671411 -15.5 26.25 C-14.51 26.25 -13.52 26.25 -12.5 26.25 C-12.5 26.91 -12.5 27.57 -12.5 28.25 C-7.55 28.58 -2.6 28.91 2.5 29.25 C2.5 28.26 2.5 27.27 2.5 26.25 C1.57058594 26.10304688 0.64117187 25.95609375 -0.31640625 25.8046875 C-13.06554887 23.49149583 -13.06554887 23.49149583 -17.4140625 19.0546875 C-19.14639242 16.1757795 -19.33219684 13.74474956 -19.05859375 10.43359375 C-18.08197392 6.61589804 -16.41939726 4.90989528 -13.5 2.25 C-9.06062296 -0.11928501 -4.90457635 -0.05082463 0 0 Z " fill="#F6F9FE" transform="translate(311.5,260.75)"/>
<path d="M0 0 C1.26585937 -0.00515625 2.53171875 -0.0103125 3.8359375 -0.015625 C7.78675403 0.26133946 10.88042798 1.03083702 14.625 2.25 C13.635 5.55 12.645 8.85 11.625 12.25 C6.625 11.25 6.625 11.25 4.625 10.25 C3.25157169 10.1810528 1.87497898 10.16532292 0.5 10.1875 C-1.418125 10.2184375 -1.418125 10.2184375 -3.375 10.25 C-3.375 11.24 -3.375 12.23 -3.375 13.25 C-2.57835937 13.42015625 -1.78171875 13.5903125 -0.9609375 13.765625 C5.46960735 15.23635789 10.84894557 16.47394557 15.625 21.25 C16.0710029 25.40125776 16.0437794 29.14146629 14.5625 33.0625 C10.71998569 37.4008226 7.82984501 39.02927024 2.11328125 39.6015625 C-5.05872649 39.75856167 -10.90494406 39.41900699 -17.375 36.25 C-16.86787967 32.53111761 -16.25891785 29.51545761 -14.375 26.25 C-13.611875 26.559375 -12.84875 26.86875 -12.0625 27.1875 C-7.20185159 28.58802581 -2.40641827 28.90979734 2.625 29.25 C2.295 28.26 1.965 27.27 1.625 26.25 C-0.93900704 25.43661571 -0.93900704 25.43661571 -4 24.9375 C-9.57496105 23.64022386 -14.16649532 22.25786879 -17.375 17.25 C-18.43542275 13.35713227 -18.29829578 10.01061665 -16.41015625 6.41015625 C-11.93083041 0.55697967 -7.00506189 -0.0284181 0 0 Z " fill="#F8FAFE" transform="translate(309.375,213.75)"/>
<path d="M0 0 C0.68578125 -0.00322266 1.3715625 -0.00644531 2.078125 -0.00976562 C6.41143637 0.0357176 9.97301744 0.73316778 14 2.3125 C13.43945339 5.67577963 12.58158962 8.30362219 11 11.3125 C10.08476562 11.2403125 9.16953125 11.168125 8.2265625 11.09375 C7.03804687 11.0009375 5.84953125 10.908125 4.625 10.8125 C3.44164063 10.7196875 2.25828125 10.626875 1.0390625 10.53125 C-0.63786843 10.41054546 -2.31873056 10.3125 -4 10.3125 C-3.67 11.3025 -3.34 12.2925 -3 13.3125 C-0.4060645 14.20101059 -0.4060645 14.20101059 2.6875 14.75 C7.69460121 15.88255861 11.07207377 17.02153478 15 20.3125 C16.60167908 23.51585815 16.34898532 26.82935804 16 30.3125 C14.69704997 33.89561258 12.86641988 35.67135973 9.6875 37.625 C2.28952854 40.98275089 -6.8043376 40.31213419 -14.375 37.8125 C-15.57125 37.3175 -16.7675 36.8225 -18 36.3125 C-17.01 33.3425 -16.02 30.3725 -15 27.3125 C-11.11934944 27.3125 -7.58403061 27.74449547 -3.75 28.3125 C-2.48671875 28.498125 -1.2234375 28.68375 0.078125 28.875 C1.04234375 29.019375 2.0065625 29.16375 3 29.3125 C2.67 28.3225 2.34 27.3325 2 26.3125 C-0.65827162 25.35036636 -0.65827162 25.35036636 -3.8125 24.75 C-8.40308113 23.7603132 -12.19665387 22.92263048 -15.75 19.75 C-17.6780772 15.99024945 -17.53312635 12.45163377 -17 8.3125 C-15.63786664 4.83149251 -14.55866971 3.65687402 -11.3828125 1.69921875 C-7.48222257 0.10024713 -4.14019078 -0.09727892 0 0 Z " fill="#F8FAFE" transform="translate(120,213.6875)"/>
<path d="M0 0 C11.55 0 23.1 0 35 0 C35 3.3 35 6.6 35 10 C31.37 10 27.74 10 24 10 C24 19.24 24 28.48 24 38 C19.71 38 15.42 38 11 38 C11 28.76 11 19.52 11 10 C7.37 10 3.74 10 0 10 C0 6.7 0 3.4 0 0 Z " fill="#F6F9FE" transform="translate(174,214)"/>
<path d="M0 0 C2.69990662 1.79993774 4.5418865 3.083773 6 6 C6.375 9.3125 6.375 9.3125 6 13 C3.5625 15.875 3.5625 15.875 1 18 C0.67 18.33 0.34 18.66 0 19 C-3.91368062 19.53368372 -5.56271147 19.29469444 -8.875 17.0625 C-11.36004541 13.48111103 -11.74127589 11.4347017 -11.484375 7.16015625 C-10.13395611 1.13772363 -5.74579511 -1.07733658 0 0 Z " fill="#4488F6" transform="translate(191,271)"/>
<path d="M0 0 C1.9375 1 1.9375 1 3 3 C3.45982357 5.75894141 3.51068558 8.24574069 3 11 C0.81246717 13.6923481 -0.58423955 13.93936827 -4 14.4375 C-7 14 -7 14 -9.375 12.375 C-11.48706506 9.28813568 -11.61195145 7.6717087 -11 4 C-8.05323917 -0.47907646 -5.13567732 -0.65363166 0 0 Z " fill="#F8FBFE" transform="translate(340,286)"/>
<path d="M0 0 C4 0 8 0 12 0 C12.99 2.64 13.98 5.28 15 8 C13.63875 7.9690625 13.63875 7.9690625 12.25 7.9375 C9.54250017 7.9895673 7.56725799 8.2917909 5 9 C4.01 9 3.02 9 2 9 C2 6.69 2 4.38 2 2 C1.34 2 0.68 2 0 2 C0 1.34 0 0.68 0 0 Z " fill="#5995F7" transform="translate(380,280)"/>
<path d="M0 0 C6.0546875 -0.1953125 6.0546875 -0.1953125 8 0 C8.66 0.66 9.32 1.32 10 2 C9.43181818 7.56818182 9.43181818 7.56818182 8 9 C5.32941149 9.14115161 2.67567762 9.04247107 0 9 C0 6.03 0 3.06 0 0 Z " fill="#4E8EF7" transform="translate(266,224)"/>
<path d="M0 0 C6.39075249 -0.36174071 6.39075249 -0.36174071 9 1.1875 C10 3 10 3 9.75 5.625 C9 8 9 8 8 9 C5.32941149 9.14115161 2.67567762 9.04247107 0 9 C0 6.03 0 3.06 0 0 Z " fill="#4C8DF7" transform="translate(227,271)"/>
<path d="M0 0 C3.3 0 6.6 0 10 0 C10 0.99 10 1.98 10 3 C11.32 3 12.64 3 14 3 C14 2.01 14 1.02 14 0 C14.66 0 15.32 0 16 0 C16 2.97 16 5.94 16 9 C15.34 9 14.68 9 14 9 C14 7.68 14 6.36 14 5 C12.68 5 11.36 5 10 5 C10 5.99 10 6.98 10 8 C9.34 8 8.68 8 8 8 C8 6.02 8 4.04 8 2 C7.01 2 6.02 2 5 2 C5 3.98 5 5.96 5 8 C4.34 8 3.68 8 3 8 C3 6.02 3 4.04 3 2 C2.01 2 1.02 2 0 2 C0 1.34 0 0.68 0 0 Z " fill="#B2CEFC" transform="translate(354,269)"/>
<path d="M0 0 C5.71428571 0.71428571 5.71428571 0.71428571 7 2 C7.1875 4.4375 7.1875 4.4375 7 7 C5 9 5 9 1.875 9.125 C0.451875 9.063125 0.451875 9.063125 -1 9 C-1.09765625 2.84765625 -1.09765625 2.84765625 -1 1 C-0.67 0.67 -0.34 0.34 0 0 Z " fill="#C1D8FC" transform="translate(356,280)"/>
<path d="M0 0 C2.05078125 0.03255208 4.1015625 0.06510417 6.15234375 0.09765625 C6.48234375 1.08765625 6.81234375 2.07765625 7.15234375 3.09765625 C7.81234375 3.09765625 8.47234375 3.09765625 9.15234375 3.09765625 C9.48234375 2.10765625 9.81234375 1.11765625 10.15234375 0.09765625 C10.81234375 0.42765625 11.47234375 0.75765625 12.15234375 1.09765625 C11.16234375 3.40765625 10.17234375 5.71765625 9.15234375 8.09765625 C8.49234375 8.09765625 7.83234375 8.09765625 7.15234375 8.09765625 C6.49234375 6.44765625 5.83234375 4.79765625 5.15234375 3.09765625 C2.84234375 2.76765625 0.53234375 2.43765625 -1.84765625 2.09765625 C-1.51765625 3.41765625 -1.18765625 4.73765625 -0.84765625 6.09765625 C0.47234375 6.09765625 1.79234375 6.09765625 3.15234375 6.09765625 C3.15234375 6.75765625 3.15234375 7.41765625 3.15234375 8.09765625 C0.77734375 8.22265625 0.77734375 8.22265625 -1.84765625 8.09765625 C-2.50765625 7.43765625 -3.16765625 6.77765625 -3.84765625 6.09765625 C-3.12417691 0.16512563 -3.12417691 0.16512563 0 0 Z " fill="#BFD6FC" transform="translate(392.84765625,291.90234375)"/>
<path d="M0 0 C3.875 1.875 3.875 1.875 5 3 C5.33 2.01 5.66 1.02 6 0 C6.66 0 7.32 0 8 0 C8 2.64 8 5.28 8 8 C4.125 6.125 4.125 6.125 3 5 C2.67 5.99 2.34 6.98 2 8 C1.34 8 0.68 8 0 8 C0 5.36 0 2.72 0 0 Z " fill="#C5DAFC" transform="translate(380,292)"/>
<path d="M0 0 C0.598125 0.20625 1.19625 0.4125 1.8125 0.625 C-0.1675 1.615 -0.1675 1.615 -2.1875 2.625 C-2.1875 3.615 -2.1875 4.605 -2.1875 5.625 C-1.1975 5.955 -0.2075 6.285 0.8125 6.625 C0.8125 5.635 0.8125 4.645 0.8125 3.625 C1.4725 3.625 2.1325 3.625 2.8125 3.625 C2.4825 5.275 2.1525 6.925 1.8125 8.625 C-4.0625 7.75 -4.0625 7.75 -5.1875 6.625 C-5.4375 4.1875 -5.4375 4.1875 -5.1875 1.625 C-2.1875 -0.375 -2.1875 -0.375 0 0 Z " fill="#B8D2FC" transform="translate(373.1875,280.375)"/>
<path d="M0 0 C2.31 0 4.62 0 7 0 C6.67 1.65 6.34 3.3 6 5 C4.68 5 3.36 5 2 5 C2 5.66 2 6.32 2 7 C3.32 7.33 4.64 7.66 6 8 C4.02 8 2.04 8 0 8 C0 5.36 0 2.72 0 0 Z " fill="#BAD3FC" transform="translate(371,269)"/>
<path d="M0 0 C0.66 0 1.32 0 2 0 C2.99 2.64 3.98 5.28 5 8 C2.36 8 -0.28 8 -3 8 C-2.45276317 4.62537285 -1.9451 2.91765 0 0 Z " fill="#BAD3FC" transform="translate(358,292)"/>
<path d="M0 0 C0.66 0 1.32 0 2 0 C2.99 2.64 3.98 5.28 5 8 C4.05125 7.979375 3.1025 7.95875 2.125 7.9375 C-0.90666283 7.77448174 -0.90666283 7.77448174 -3 9 C-2.44271087 5.65626525 -1.64826111 2.96687001 0 0 Z " fill="#B8D2FC" transform="translate(390,280)"/>
<path d="M0 0 C1.98 0 3.96 0 6 0 C5.67 1.65 5.34 3.3 5 5 C3.68 5 2.36 5 1 5 C1 5.66 1 6.32 1 7 C2.65 7 4.3 7 6 7 C6 7.33 6 7.66 6 8 C4.02 8 2.04 8 0 8 C0 5.36 0 2.72 0 0 Z " fill="#C5DAFC" transform="translate(373,292)"/>
<path d="M0 0 C2.31 0 4.62 0 7 0 C6.01 0.495 6.01 0.495 5 1 C5 3.31 5 5.62 5 8 C4.34 8 3.68 8 3 8 C3 6.02 3 4.04 3 2 C2.01 2 1.02 2 0 2 C0 1.34 0 0.68 0 0 Z " fill="#C4D9FC" transform="translate(354,269)"/>
<path d="M0 0 C0.33 0 0.66 0 1 0 C0.50769231 6.52307692 0.50769231 6.52307692 -2.0625 8.9375 C-2.701875 9.288125 -3.34125 9.63875 -4 10 C-5.32 9.34 -6.64 8.68 -8 8 C-6.576875 7.4121875 -6.576875 7.4121875 -5.125 6.8125 C-1.65872662 4.80206144 -1.0197307 3.77300358 0 0 Z " fill="#D0E1FD" transform="translate(430,310)"/>
<path d="M0 0 C1.98 0 3.96 0 6 0 C6 0.66 6 1.32 6 2 C5.34 2 4.68 2 4 2 C4 2.99 4 3.98 4 5 C2.68 4.67 1.36 4.34 0 4 C0 2.68 0 1.36 0 0 Z " fill="#498BF6" transform="translate(365,294)"/>
<path d="M0 0 C2.475 0.495 2.475 0.495 5 1 C4.67 2.32 4.34 3.64 4 5 C2.68 5 1.36 5 0 5 C0 3.35 0 1.7 0 0 Z " fill="#4C8DF7" transform="translate(357,282)"/>
<path d="M0 0 C0 0.33 0 0.66 0 1 C-1.670625 1.433125 -1.670625 1.433125 -3.375 1.875 C-7.00291092 2.69241329 -7.00291092 2.69241329 -9 5 C-9.64767793 7.57061311 -9.64767793 7.57061311 -10 10 C-10.33 10 -10.66 10 -11 10 C-11.31785906 6.50355037 -11.39644605 4.602598 -9.4375 1.625 C-6.18317497 -0.54455002 -3.82869586 -0.29451507 0 0 Z " fill="#CFE1FD" transform="translate(340,286)"/>
<path d="M0 0 C0.99 1.485 0.99 1.485 2 3 C3.299375 4.2684375 3.299375 4.2684375 4.625 5.5625 C7 8 7 8 7 10 C3.34683329 8.75023244 2.21934164 8.32901247 0 5 C-0.125 2.3125 -0.125 2.3125 0 0 Z " fill="#D4E4FD" transform="translate(81,310)"/>
<path d="M0 0 C2.31 0 4.62 0 7 0 C7 0.66 7 1.32 7 2 C6.01 2 5.02 2 4 2 C4 3.98 4 5.96 4 8 C3.67 8 3.34 8 3 8 C3 6.02 3 4.04 3 2 C2.01 2 1.02 2 0 2 C0 1.34 0 0.68 0 0 Z " fill="#CADDFD" transform="translate(380,280)"/>
<path d="M0 0 C0.66 0 1.32 0 2 0 C0.87553409 3.37339774 -0.44589873 4.60069275 -3 7 C-3.66 7.66 -4.32 8.32 -5 9 C-5.33 8.34 -5.66 7.68 -6 7 C-5.04882866 5.8274869 -4.08882991 4.66212985 -3.125 3.5 C-2.59132813 2.8503125 -2.05765625 2.200625 -1.5078125 1.53125 C-0.76144531 0.77328125 -0.76144531 0.77328125 0 0 Z " fill="#DDE9FD" transform="translate(86,192)"/>
</svg>
